<?xml version="1.0" encoding="utf-8"?>
<!-- Generator: Adobe Illustrator 19.2.1, SVG Export Plug-In . SVG Version: 6.00 Build 0)  -->
<svg version="1.0" id="Capa_1" xmlns="http://www.w3.org/2000/svg" xmlns:xlink="http://www.w3.org/1999/xlink" x="0px" y="0px"
	 viewBox="0 0 400 130" style="enable-background:new 0 0 400 130;" xml:space="preserve">
<style type="text/css">
	.st0{fill:#009BDB;stroke:#000000;stroke-width:5;stroke-miterlimit:10;}
	.st1{fill:#F8E12E;stroke:#000000;stroke-width:5;stroke-miterlimit:10;}
	.st2{fill:none;stroke:#000000;stroke-width:5;stroke-miterlimit:10;}
	.st3{fill:none;stroke:#000000;stroke-width:6;stroke-miterlimit:10;}
	.st4{stroke:#000000;stroke-width:5;stroke-miterlimit:10;}
	.st5{fill:#CE6B00;stroke:#000000;stroke-width:5;stroke-miterlimit:10;}
</style>
<circle class="st0" cx="381.9" cy="86.1" r="15.4"/>
<circle class="st1" cx="338.1" cy="109.8" r="15.4"/>
<path class="st2" d="M311.2,57.5c0,24.3,6.8,44,15.3,44"/>
<path class="st2" d="M313.8,23.8c0.9-11.7,25.8-26.5,48.5-13.1"/>
<g>
	<path d="M1.7,57.5V10.1h6.1v23.3l17.4-23.3h6.4L14.9,32.6L34,57.5h-7.6L7.8,33.4v24.2H1.7z"/>
	<path d="M38.7,57.5V23.4h5.6v7.5c1.6-2.6,3.5-4.7,5.8-6.2c2.3-1.5,4.5-2.2,6.8-2.2c2,0,3.8,0.5,5.4,1.6c1.6,1.1,2.8,2.5,3.4,4.2
		c0.7,1.7,1,5.1,1,10.2v19.1h-5.6V37.8c0-3.3-0.2-5.5-0.5-6.5c-0.3-1-0.9-1.9-1.7-2.6c-0.8-0.7-1.7-1-2.7-1c-2,0-4.1,0.9-6.3,2.8
		c-2.3,1.9-4.1,4.3-5.6,7.1v19.9H38.7z"/>
	<path d="M113.7,57.5l-5.5-34.1h5.2l3.2,20.8l0.8,4.8l0.8-4.8l5.4-20.8h5l6,20.8l1.1,4.8l0.7-4.8l3.2-20.8h4.3l-5.5,34.1h-5.2
		l-6.5-22l-1-4.8h-0.1l-0.9,4.8l-5.6,22H113.7z"/>
	<path d="M158.7,57.5V28.1h-9.3v-4.7h14.9v29.4h9.4v4.7H158.7z M157.8,11c0-1.3,0.4-2.2,1.3-2.9c0.9-0.6,1.7-1,2.4-1
		c0.8,0,1.6,0.3,2.5,1c0.9,0.6,1.3,1.6,1.3,2.9c0,1.3-0.4,2.2-1.3,2.9c-0.9,0.6-1.7,1-2.5,1c-0.8,0-1.6-0.3-2.4-1
		S157.8,12.3,157.8,11z"/>
	<path d="M214.4,56.2c-2.6,1.1-4.6,1.8-5.7,2c-1.2,0.2-2.3,0.3-3.4,0.3c-2.3,0-4.5-0.5-6.4-1.4c-1.9-0.9-3.4-2.3-4.4-4.1
		c-1-1.8-1.5-4.6-1.5-8.3V31h-8.4v-4.7h8.4V12.5h5.6v13.7h15V31h-15v13.7c0,2.8,0.3,4.7,1,5.8s1.5,2,2.6,2.5
		c1.1,0.5,2.3,0.8,3.8,0.8c2.7,0,5.6-0.9,8.6-2.6V56.2z"/>
	<path d="M232.7,57.5V28.1h-9.3v-4.7h14.9v29.4h9.4v4.7H232.7z M231.8,11c0-1.3,0.4-2.2,1.3-2.9c0.9-0.6,1.7-1,2.4-1
		c0.8,0,1.6,0.3,2.5,1c0.9,0.6,1.3,1.6,1.3,2.9c0,1.3-0.4,2.2-1.3,2.9s-1.7,1-2.5,1c-0.8,0-1.6-0.3-2.4-1S231.8,12.3,231.8,11z"/>
	<path d="M271.2,57.5l-14.6-34.1h6.1l11.5,27l11.8-27h5.6L277,57.5H271.2z"/>
	<path d="M325.3,55.3c-4.5,2.2-8.7,3.3-12.7,3.3c-3,0-5.7-0.8-8.1-2.3s-4.3-3.7-5.7-6.6c-1.4-2.8-2.2-5.9-2.2-9.1
		c0-3.1,0.7-6.1,2.1-9c1.4-2.9,3.3-5.1,5.7-6.7c2.4-1.6,5.2-2.4,8.2-2.4c4,0,7.2,1.4,9.6,4.3c2.4,2.9,3.6,7.4,3.6,13.4v1.2h-23.2
		c0,2.4,0.5,4.5,1.5,6.5c1,1.9,2.3,3.4,3.8,4.4c1.6,1,3.4,1.5,5.4,1.5c3.6,0,7.6-1.2,12-3.7V55.3z M302.9,37.1h16.8v-0.8
		c0-2.8-0.7-5-2-6.7c-1.4-1.6-3.1-2.5-5.4-2.5c-2.3,0-4.2,0.8-5.9,2.5C304.7,31.4,303.6,33.9,302.9,37.1z"/>
</g>
<path class="st2" d="M376.1,72.5c0-23.4-23.4-33.5-51-33.5"/>
<path class="st3" d="M303.2,53.8c0,1.2-198.8,109.7-212.7,3.6"/>
<circle class="st4" cx="90.7" cy="41.2" r="15.4"/>
<circle class="st5" cx="374.3" cy="18.4" r="15.4"/>
<g>
</g>
<g>
</g>
<g>
</g>
<g>
</g>
<g>
</g>
<g>
</g>
</svg>
